<svg width="38" height="44" viewBox="0 0 38 44" fill="none" xmlns="http://www.w3.org/2000/svg">
<path d="M32.1312 11.2972L30.713 10.8778L26.8083 2.10773C26.2226 0.79222 25.01 0.281279 23.7767 0.830374C22.5434 1.37947 22.1117 2.62253 22.6974 3.93804L23.1855 5.0343C19.9531 8.83787 15.3485 15.0914 9.18206 17.8368L4.04337 20.1247C1.1657 21.4059 0.0760735 25.0436 1.34509 27.8939C2.22364 29.8671 4.03232 31.1636 5.86162 31.4L13.882 43.3291C14.1749 43.9869 14.9868 44.1508 15.809 43.7847L16.22 43.6017L22.9364 38.7724C23.661 38.1871 23.7793 37.3463 23.2809 36.7801C22.0785 35.7391 20.1722 34.2234 19.0572 33.9317C18.5485 33.8955 17.1509 32.416 15.8613 30.6258L17.0945 30.0767L16.216 28.1035C22.0586 26.2903 30.1107 26.1205 32.9471 26.9594L33.4352 28.0556C34.0209 29.3711 35.2336 29.8821 36.4669 29.333C37.7002 28.7839 38.1319 27.5408 37.5462 26.2253L33.6415 17.4553L34.1708 16.4315C34.7002 15.4077 34.7208 14.3476 34.3303 13.4706L34.1351 13.0321C33.7446 12.1551 33.0407 11.6804 32.1312 11.2972ZM3.99179 22.7748L10.1582 20.0293L11.1344 22.2218L4.96796 24.9673L3.99179 22.7748ZM18.8104 36.1433C19.0159 36.0518 19.7199 36.5265 20.5214 37.2205L15.4494 41.3177L8.51311 31.2703L12.4185 29.5315C14.0986 32.1987 16.7755 35.9984 18.8104 36.1433ZM31.7757 24.3284C27.706 24.0386 20.7793 23.9701 15.1422 25.6917L12.2137 19.1142C17.2651 16.077 21.9466 11.1028 24.3569 7.66531L31.7757 24.3284Z" fill="#F8E4BE"/>
</svg>
