<svg width="18" height="20" viewBox="0 0 18 20" fill="none" xmlns="http://www.w3.org/2000/svg">
<path d="M2 20C1.45 20 0.979 19.8043 0.587 19.413C0.195667 19.021 0 18.55 0 18V4C0 3.45 0.195667 2.97933 0.587 2.588C0.979 2.196 1.45 2 2 2H3V0.975C3 0.691667 3.09567 0.458333 3.287 0.275C3.479 0.0916668 3.71667 0 4 0C4.28333 0 4.521 0.0956666 4.713 0.287C4.90433 0.479 5 0.716667 5 1V2H13V0.975C13 0.691667 13.096 0.458333 13.288 0.275C13.4793 0.0916668 13.7167 0 14 0C14.2833 0 14.5207 0.0956666 14.712 0.287C14.904 0.479 15 0.716667 15 1V2H16C16.55 2 17.021 2.196 17.413 2.588C17.8043 2.97933 18 3.45 18 4V18C18 18.55 17.8043 19.021 17.413 19.413C17.021 19.8043 16.55 20 16 20H2ZM2 18H16V8H2V18ZM2 6H16V4H2V6Z" fill="#BCA88B"/>
<path d="M14 0.5C14.1181 0.5 14.2083 0.526701 14.2852 0.579102L14.3584 0.640625C14.4522 0.734405 14.5 0.842855 14.5 1V2.5H16C16.3643 2.5 16.6733 2.60917 16.9453 2.83691L17.0596 2.94141C17.3578 3.23963 17.5 3.58354 17.5 4V18C17.5 18.3643 17.3912 18.6735 17.1641 18.9453L17.0596 19.0596C16.7606 19.3579 16.4163 19.5 16 19.5H2C1.63567 19.5 1.32653 19.3912 1.05469 19.1641L0.94043 19.0596C0.642139 18.7606 0.5 18.4163 0.5 18V4C0.5 3.58354 0.642207 3.23963 0.94043 2.94141C1.2395 2.64234 1.58379 2.5 2 2.5H3.5V0.974609C3.50008 0.817855 3.54692 0.71847 3.63184 0.636719C3.72415 0.548568 3.83576 0.5 4 0.5C4.11824 0.5 4.20867 0.52728 4.28613 0.580078L4.36035 0.641602C4.45264 0.7349 4.5 0.843198 4.5 1V2.5H13.5V0.974609C13.5001 0.85711 13.5267 0.771986 13.5762 0.702148L13.6328 0.636719L13.6338 0.635742C13.7252 0.548207 13.8358 0.5 14 0.5ZM1.5 18.5H16.5V7.5H1.5V18.5ZM1.5 6.5H16.5V3.5H1.5V6.5Z" stroke="#F8E4BE" stroke-opacity="0.8"/>
</svg>
