<svg width="36" height="36" viewBox="0 0 36 36" fill="none" xmlns="http://www.w3.org/2000/svg">
<path d="M18.382 30.9827C18.382 31.2237 18.3105 31.4593 18.1766 31.6598C18.0426 31.8602 17.8523 32.0164 17.6296 32.1086C17.4069 32.2009 17.1619 32.225 16.9254 32.178C16.689 32.131 16.4719 32.0149 16.3014 31.8445C16.131 31.674 16.0149 31.4568 15.9679 31.2204C15.9209 30.984 15.945 30.739 16.0372 30.5163C16.1295 30.2936 16.2857 30.1032 16.4861 29.9693C16.6865 29.8354 16.9222 29.7639 17.1632 29.7639C17.4864 29.7639 17.7964 29.8923 18.025 30.1209C18.2536 30.3494 18.382 30.6594 18.382 30.9827ZM27.7257 29.7639C27.4847 29.7639 27.249 29.8354 27.0486 29.9693C26.8482 30.1032 26.692 30.2936 26.5997 30.5163C26.5075 30.739 26.4834 30.984 26.5304 31.2204C26.5774 31.4568 26.6935 31.674 26.8639 31.8445C27.0344 32.0149 27.2515 32.131 27.4879 32.178C27.7244 32.225 27.9694 32.2009 28.1921 32.1086C28.4148 32.0164 28.6051 31.8602 28.7391 31.6598C28.873 31.4593 28.9445 31.2237 28.9445 30.9827C28.9445 30.6594 28.8161 30.3494 28.5875 30.1209C28.3589 29.8923 28.0489 29.7639 27.7257 29.7639ZM31.9507 16.4694L29.2695 25.8538C29.1434 26.2767 28.8849 26.648 28.5321 26.9131C28.1792 27.1782 27.7506 27.3231 27.3093 27.3264H17.5796C17.1383 27.3231 16.7097 27.1782 16.3569 26.9131C16.004 26.648 15.7455 26.2767 15.6195 25.8538L12.9484 16.4795V16.4592L11.9531 12.9959C11.9271 12.911 11.8746 12.8367 11.8033 12.7837C11.7321 12.7307 11.6458 12.7019 11.557 12.7014H9.85071C9.74296 12.7014 9.63963 12.6586 9.56345 12.5824C9.48726 12.5062 9.44446 12.4029 9.44446 12.2952C9.44446 12.1874 9.48726 12.0841 9.56345 12.0079C9.63963 11.9317 9.74296 11.8889 9.85071 11.8889H11.557C11.8224 11.8892 12.0807 11.9754 12.293 12.1347C12.5054 12.294 12.6605 12.5177 12.7351 12.7725L13.639 15.9514H31.5546C31.6178 15.9506 31.6803 15.9649 31.7368 15.9932C31.7934 16.0215 31.8423 16.0629 31.8796 16.1139C31.9182 16.1636 31.9447 16.2216 31.957 16.2833C31.9693 16.345 31.9672 16.4087 31.9507 16.4694ZM31.0163 16.7639H13.8726L16.4015 25.6303C16.4761 25.8851 16.6312 26.1089 16.8435 26.2681C17.0559 26.4274 17.3142 26.5136 17.5796 26.5139H27.3093C27.5748 26.5136 27.833 26.4274 28.0454 26.2681C28.2577 26.1089 28.4128 25.8851 28.4874 25.6303L31.0163 16.7639Z" fill="#F8E4BE" stroke="#F8E4BE" stroke-width="0.5"/>
<path d="M25.1702 19.0375C24.891 18.7755 24.5529 18.5843 24.1845 18.4798C23.8161 18.3753 23.428 18.3607 23.0527 18.4371C22.1677 18.5931 21.3545 19.0245 20.7292 19.6699C20.0814 20.2954 19.6486 21.1102 19.4928 21.9971C19.417 22.3718 19.4319 22.7592 19.5364 23.1269C19.6408 23.4947 19.8318 23.8321 20.0932 24.111C20.3116 24.3205 20.5696 24.4843 20.852 24.5929C21.1345 24.7015 21.4357 24.7526 21.7382 24.7434C22.7991 24.7007 23.8018 24.2472 24.5343 23.4786C25.9337 22.0788 26.218 20.0856 25.1702 19.0375ZM19.8445 22.0504C19.9895 21.2396 20.386 20.495 20.9779 19.9222C21.5497 19.3291 22.2947 18.9323 23.106 18.7888C23.2448 18.7679 23.3849 18.7572 23.5253 18.7569C23.781 18.748 24.0358 18.7903 24.275 18.8812C24.5141 18.9721 24.7327 19.1098 24.918 19.2862C24.9329 19.3 24.946 19.3155 24.9571 19.3324C24.7358 19.5242 24.4802 19.6725 24.2039 19.7694C23.8047 19.913 23.4446 20.1478 23.1522 20.4551C22.8449 20.7475 22.6101 21.1076 22.4665 21.5068C22.3422 21.8626 22.1338 22.1832 21.859 22.4412C21.6 22.7148 21.2797 22.923 20.9246 23.0487C20.6191 23.1575 20.3362 23.3212 20.0897 23.5319C19.8364 23.0822 19.7496 22.5577 19.8445 22.0504ZM24.282 23.2263C23.0208 24.4876 21.255 24.7718 20.3455 23.8623C20.3304 23.8477 20.3162 23.8323 20.3028 23.8161C20.5259 23.6248 20.7825 23.4767 21.0596 23.3791C21.4576 23.2333 21.8173 22.9988 22.1112 22.6934C22.4179 22.4004 22.6525 22.0405 22.7969 21.6418C22.9213 21.2859 23.1297 20.9654 23.4045 20.7074C23.6625 20.4326 23.983 20.2242 24.3389 20.0998C24.6429 19.9887 24.9245 19.8239 25.1702 19.6131C25.7529 20.5766 25.4083 22.1001 24.282 23.2263Z" fill="#F8E4BE" stroke="#F8E4BE" stroke-width="0.5"/>
</svg>
