<svg width="25" height="27" viewBox="0 0 25 27" fill="none" xmlns="http://www.w3.org/2000/svg">
<path d="M20.4785 13.9113L21.6699 6.86602C21.6843 6.77508 21.6804 6.68187 21.6585 6.5927C21.6366 6.50353 21.5972 6.42049 21.543 6.34922C21.4894 6.27614 21.4211 6.21724 21.3432 6.17703C21.2654 6.13682 21.18 6.11635 21.0938 6.11719H5.17578L4.66797 3.11133C4.6128 2.77144 4.44838 2.46345 4.20366 2.2416C3.95894 2.01974 3.64959 1.89822 3.33008 1.89844H1.5625C1.4071 1.89844 1.25806 1.96511 1.14818 2.08378C1.0383 2.20246 0.976562 2.36342 0.976562 2.53125C0.976562 2.69908 1.0383 2.86004 1.14818 2.97872C1.25806 3.09739 1.4071 3.16406 1.5625 3.16406H3.33008C3.37409 3.16548 3.41637 3.18293 3.45005 3.21356C3.48373 3.24419 3.50684 3.28621 3.51562 3.33281L6.2207 19.3852C5.88619 19.6759 5.62541 20.0535 5.46273 20.4826C5.30006 20.9117 5.24081 21.3784 5.29052 21.839C5.34023 22.2996 5.49728 22.7391 5.74699 23.1163C5.9967 23.4935 6.3309 23.7962 6.71836 23.996C7.10581 24.1959 7.53386 24.2863 7.96247 24.2589C8.39109 24.2315 8.80627 24.0872 9.16921 23.8394C9.53214 23.5917 9.83096 23.2485 10.0377 22.8421C10.2445 22.4357 10.3525 21.9793 10.3516 21.5156C10.3535 20.9919 10.2144 20.4789 9.95117 20.0391H15.8301C15.5668 20.4789 15.4277 20.9919 15.4297 21.5156C15.4297 22.058 15.5786 22.5882 15.8576 23.0391C16.1366 23.4901 16.5331 23.8415 16.9971 24.0491C17.461 24.2566 17.9716 24.3109 18.4641 24.2051C18.9566 24.0993 19.409 23.8381 19.7641 23.4546C20.1192 23.0711 20.3611 22.5825 20.459 22.0506C20.557 21.5187 20.5067 20.9673 20.3145 20.4662C20.1224 19.9652 19.7969 19.5369 19.3794 19.2356C18.9618 18.9343 18.4709 18.7734 17.9688 18.7734H7.30469L6.80664 15.8203H18.3691C18.872 15.819 19.3586 15.6273 19.744 15.2785C20.1294 14.9296 20.3894 14.4458 20.4785 13.9113ZM9.17969 21.5156C9.17969 21.8077 9.0995 22.0931 8.94927 22.336C8.79905 22.5788 8.58552 22.768 8.3357 22.8798C8.08588 22.9915 7.81098 23.0208 7.54578 22.9638C7.28057 22.9068 7.03696 22.7662 6.84575 22.5597C6.65455 22.3532 6.52434 22.0901 6.47158 21.8037C6.41883 21.5173 6.4459 21.2204 6.54938 20.9506C6.65286 20.6808 6.8281 20.4502 7.05293 20.2879C7.27776 20.1257 7.5421 20.0391 7.8125 20.0391C8.1751 20.0391 8.52285 20.1946 8.77925 20.4715C9.03565 20.7484 9.17969 21.124 9.17969 21.5156ZM19.3359 21.5156C19.3359 21.8077 19.2558 22.0931 19.1055 22.336C18.9553 22.5788 18.7418 22.768 18.492 22.8798C18.2421 22.9915 17.9672 23.0208 17.702 22.9638C17.4368 22.9068 17.1932 22.7662 17.002 22.5597C16.8108 22.3532 16.6806 22.0901 16.6278 21.8037C16.5751 21.5173 16.6022 21.2204 16.7056 20.9506C16.8091 20.6808 16.9843 20.4502 17.2092 20.2879C17.434 20.1257 17.6983 20.0391 17.9688 20.0391C18.3314 20.0391 18.6791 20.1946 18.9355 20.4715C19.1919 20.7484 19.3359 21.124 19.3359 21.5156ZM5.39063 7.38281H20.3906L19.3262 13.6898C19.2852 13.932 19.167 14.1509 18.9922 14.3089C18.8175 14.4668 18.597 14.5538 18.3691 14.5547H6.60156L5.39063 7.38281Z" fill="#F8E4BE" stroke="#F8E4BE" stroke-width="1.5"/>
</svg>
