<svg width="25" height="25" viewBox="0 0 25 25" fill="none" xmlns="http://www.w3.org/2000/svg">
<path fill-rule="evenodd" clip-rule="evenodd" d="M12.5 -6.10352e-05C19.4037 -6.10352e-05 25 5.59619 25 12.4999C25 19.4037 19.4037 24.9999 12.5 24.9999C5.59625 24.9999 0 19.4037 0 12.4999C0 5.59619 5.59625 -6.10352e-05 12.5 -6.10352e-05ZM14.3525 18.6749C13.1196 18.7768 11.8804 18.7768 10.6475 18.6749C10.7642 19.1716 10.8933 19.6308 11.035 20.0524C11.3488 20.9962 11.6975 21.6687 12.0225 22.0799C12.1812 22.2824 12.31 22.3899 12.3975 22.4424L12.4613 22.4774L12.4987 22.4874L12.5387 22.4774L12.6025 22.4437C12.7477 22.3457 12.8746 22.223 12.9775 22.0812C13.3025 21.6687 13.6512 20.9962 13.965 20.0524C14.1067 19.6308 14.2358 19.1716 14.3525 18.6749ZM3.50875 16.8812C4.64431 19.2048 6.63293 21.0004 9.06 21.8937C8.91326 21.5492 8.78065 21.199 8.6625 20.8437C8.39046 20.0117 8.17332 19.1628 8.0125 18.3024C6.46555 17.988 4.95599 17.5116 3.50875 16.8812ZM21.4925 16.8812C20.0613 17.5062 18.5537 17.9849 16.9862 18.3024C16.8255 19.1633 16.6083 20.0126 16.3363 20.8449C16.2162 21.2091 16.0837 21.5583 15.9388 21.8924C18.3668 20.9997 20.3563 19.204 21.4925 16.8799V16.8812ZM14.97 11.0887C13.3305 11.3066 11.6695 11.3066 10.03 11.0887C9.95857 12.7678 10.0175 14.4499 10.2063 16.1199C11.7305 16.2937 13.2695 16.2937 14.7937 16.1199C14.9325 14.9183 15.0014 13.7096 15 12.4999C15 12.0199 14.99 11.5491 14.97 11.0874V11.0887ZM3.21 8.78994C2.59997 10.3186 2.3767 11.9743 2.56 13.6099C4.15267 14.5221 5.8633 15.2106 7.64375 15.6562C7.49055 13.9719 7.45964 12.2787 7.55125 10.5899C6.0344 10.1744 4.57586 9.56963 3.21 8.78994ZM21.79 8.78994C20.4241 9.56963 18.9656 10.1744 17.4487 10.5899C17.5404 12.2787 17.5094 13.9719 17.3563 15.6562C19.1363 15.2105 20.8465 14.5219 22.4388 13.6099C22.6218 11.9747 22.3986 10.3195 21.7887 8.79119L21.79 8.78994ZM12.52 2.51494L12.5063 2.51244L12.4812 2.51619L12.4337 2.53494C12.2732 2.63565 12.1333 2.76587 12.0212 2.91869C11.6962 3.33119 11.3487 4.00369 11.0337 4.94619C10.6962 5.95619 10.4237 7.19619 10.2425 8.59494C11.7402 8.80504 13.2598 8.80504 14.7575 8.59494C14.5763 7.19494 14.3025 5.95619 13.9663 4.94619C13.6513 4.00369 13.3038 3.32994 12.9788 2.91869C12.8759 2.77688 12.749 2.6542 12.6038 2.55619L12.52 2.51494ZM9.06 3.10744C7.20233 3.78842 5.58842 5.00516 4.4225 6.60369C5.47625 7.20869 6.605 7.69869 7.79125 8.05744C7.99125 6.60244 8.2875 5.27869 8.6625 4.15494C8.78333 3.78994 8.91583 3.44077 9.06 3.10744ZM15.94 3.10744C16.0833 3.44077 16.2158 3.78994 16.3375 4.15494C16.7125 5.27994 17.0088 6.60244 17.2087 8.05744C18.3829 7.70159 19.5131 7.21389 20.5775 6.60369C19.4116 5.00516 17.7977 3.78842 15.94 3.10744Z" fill="#F8E4BE"/>
</svg>
