<svg width="29" height="27" viewBox="0 0 29 27" fill="none" xmlns="http://www.w3.org/2000/svg">
<path d="M13.75 9.75C14.9926 9.75 16 8.74264 16 7.5C16 6.25736 14.9926 5.25 13.75 5.25C12.5074 5.25 11.5 6.25736 11.5 7.5C11.5 8.74264 12.5074 9.75 13.75 9.75Z" stroke="#F8E4BE" stroke-width="2" stroke-linecap="round" stroke-linejoin="round"/>
<path d="M11.725 8.5125L8.62459 10.8009C7.60293 11.555 7 12.7494 7 14.0192V22.125C7 22.8 7.45 23.25 8.125 23.25H26.125C26.8 23.25 27.25 22.8 27.25 22.125V12C27.25 10.1123 24.8744 6.64094 21.452 4.24321C20.2324 3.38874 18.6183 3.54653 17.411 4.41842L15.325 5.925M21.625 14.25H7M21.625 18.75H7" stroke="#F8E4BE" stroke-width="2" stroke-linecap="round" stroke-linejoin="round"/>
</svg>
