<svg width="25" height="27" viewBox="0 0 25 27" fill="none" xmlns="http://www.w3.org/2000/svg">
<path d="M7.19231 9.92857V6.35714C7.19231 4.93634 7.75151 3.57373 8.74689 2.56907C9.74228 1.56441 11.0923 1 12.5 1C13.9077 1 15.2577 1.56441 16.2531 2.56907C17.2485 3.57373 17.8077 4.93634 17.8077 6.35714V9.92857C17.808 10.8692 17.5629 11.7934 17.097 12.6081C16.6311 13.4228 15.961 14.0993 15.1538 14.5696V16.7554C15.1541 17.1122 15.2602 17.4608 15.4586 17.7561C15.6569 18.0515 15.9384 18.2801 16.2667 18.4125L19.8936 19.8768C21.1064 20.3658 22.1459 21.2107 22.8779 22.3023C23.61 23.3938 24.0008 24.6819 24 26H1C1 23.3036 2.62769 20.8786 5.10638 19.8786L8.73331 18.4143C9.06189 18.2818 9.34356 18.0529 9.54194 17.7572C9.74032 17.4615 9.84628 17.1125 9.84615 16.7554V14.5696C9.03904 14.0993 8.36886 13.4228 7.90299 12.6081C7.43713 11.7934 7.19202 10.8692 7.19231 9.92857Z" stroke="#F8E4BE" stroke-opacity="0.8" stroke-width="2" stroke-linecap="round" stroke-linejoin="round"/>
</svg>
