<svg width="25" height="25" viewBox="0 0 25 25" fill="none" xmlns="http://www.w3.org/2000/svg">
<path d="M3.09058 10.9333V16.1427C3.09058 19.0906 3.09058 20.5636 4.00516 21.4802C4.92183 22.3959 6.3937 22.3959 9.34058 22.3959H15.5906C18.5364 22.3959 20.0093 22.3959 20.9249 21.4792C21.8406 20.5636 21.8406 19.0906 21.8406 16.1427V10.9333M7.25724 18.7427H11.4239" stroke="#F8E4BE" stroke-width="3" stroke-linecap="round" stroke-linejoin="round"/>
<path d="M10.525 8.76877C10.2312 9.82919 9.16246 11.6594 7.1333 11.925C5.34163 12.1584 3.98121 11.3771 3.63434 11.05C3.25204 10.7844 2.37913 9.93544 2.16559 9.40523C1.95204 8.87398 2.201 7.72606 2.37913 7.25731L3.09059 5.19585C3.26454 4.67814 3.67184 3.45419 4.0885 3.0396C4.50517 2.62502 5.34892 2.60835 5.69684 2.60835H12.9948C14.8729 2.63439 18.9802 2.59169 19.7916 2.60835C20.6041 2.62502 21.0916 3.30627 21.2343 3.59794C22.4458 6.53127 22.9166 8.21148 22.9166 8.9271C22.7583 9.69064 22.1041 11.1313 19.7916 11.7646C17.3885 12.4229 16.026 11.1427 15.5989 10.65M9.53642 10.65C9.87496 11.0667 10.9364 11.9021 12.4739 11.924C14.0125 11.9448 15.3406 10.8719 15.8125 10.3323C15.9458 10.1729 16.2343 9.70106 16.5343 8.76773" stroke="#F8E4BE" stroke-width="3" stroke-linecap="round" stroke-linejoin="round"/>
</svg>
