<svg width="23" height="16" viewBox="0 0 23 16" fill="none" xmlns="http://www.w3.org/2000/svg">
<path d="M14.5 5.5L19.6221 2.9395C19.7936 2.85381 19.9841 2.81336 20.1756 2.82199C20.3671 2.83061 20.5532 2.88803 20.7163 2.98878C20.8794 3.08953 21.014 3.23029 21.1074 3.39768C21.2008 3.56507 21.2499 3.75356 21.25 3.94525V11.5548C21.2499 11.7464 21.2008 11.9349 21.1074 12.1023C21.014 12.2697 20.8794 12.4105 20.7163 12.5112C20.5532 12.612 20.3671 12.6694 20.1756 12.678C19.9841 12.6866 19.7936 12.6462 19.6221 12.5605L14.5 10V5.5ZM1 3.25C1 2.65326 1.23705 2.08097 1.65901 1.65901C2.08097 1.23705 2.65326 1 3.25 1H12.25C12.8467 1 13.419 1.23705 13.841 1.65901C14.2629 2.08097 14.5 2.65326 14.5 3.25V12.25C14.5 12.8467 14.2629 13.419 13.841 13.841C13.419 14.2629 12.8467 14.5 12.25 14.5H3.25C2.65326 14.5 2.08097 14.2629 1.65901 13.841C1.23705 13.419 1 12.8467 1 12.25V3.25Z" stroke="#F8E4BE" stroke-opacity="0.8" stroke-width="2" stroke-linecap="round" stroke-linejoin="round"/>
</svg>
